<svg width="91" height="91" xmlns="http://www.w3.org/2000/svg">

 <g>
  <title>background</title>
  <rect fill="none" id="canvas_background" height="402" width="582" y="-1" x="-1"/>
 </g>
 <g>
  <title>Layer 1</title>
  <path id="svg_2" fill="#daa520" d="m85.585625,12.142l-79.851999,0c-2.305,0 -4.174,-1.869 -4.174,-4.176c0,-2.305 1.869,-4.174 4.174,-4.174l79.851999,0c2.305,0 4.174004,1.869 4.174004,4.174c0,2.307 -1.869003,4.176 -4.174004,4.176z"/>
  <path id="svg_3" fill="#daa520" d="m85.585625,49.858002l-79.851999,0c-2.305,0 -4.174,-1.869003 -4.174,-4.175003c0,-2.306999 1.869,-4.175999 4.174,-4.175999l79.851999,0c2.305,0 4.174004,1.868999 4.174004,4.175999c0,2.306 -1.869003,4.175003 -4.174004,4.175003z"/>
  <path id="svg_4" fill="#daa520" d="m85.585625,87.570999l-79.851999,0c-2.305,0 -4.174,-1.868996 -4.174,-4.176003s1.869,-4.175995 4.174,-4.175995l79.851999,0c2.305,0 4.174004,1.868996 4.174004,4.175995s-1.869003,4.176003 -4.174004,4.176003z"/>
 </g>
</svg>