<svg width="512" height="512" xmlns="http://www.w3.org/2000/svg">

 <g>
  <title>background</title>
  <rect fill="none" id="canvas_background" height="402" width="582" y="-1" x="-1"/>
 </g>
 <g>
  <title>Layer 1</title>
  <path fill="#daa520" id="XMLID_173_" d="m21.1,380.5c-5,0 -10,-2.5 -12.8,-7.100006c-4.4,-7.100006 -2.2,-16.399994 4.9,-20.699982l112.600003,-69.900024c4.199997,-2.599976 9.5,-3 14.099991,-1l106.300003,47.600006l209.800003,-160.199997c6.600006,-5 16.100006,-3.800003 21.100006,2.800003c5,6.600006 3.800018,16.100006 -2.799988,21.100006l-217.000031,165.600006c-4.399994,3.399994 -10.300003,4 -15.300003,1.799988l-107.199997,-47.899994l-105.799988,65.600006c-2.5,1.5 -5.200001,2.299988 -7.9,2.299988z" class="st0"/>
  <polygon fill="#daa520" points="375,162.8 506,131.5 467.6,260.6  " id="XMLID_91_" class="st0"/>
 </g>
</svg>