<svg width="50" height="50" xmlns="http://www.w3.org/2000/svg">

 <g>
  <title>background</title>
  <rect fill="none" id="canvas_background" height="402" width="582" y="-1" x="-1"/>
 </g>
 <g>
  <title>Layer 1</title>
  <path fill="#daa520" id="svg_1" d="m25,49c13.233002,0 24,-10.766998 24,-24s-10.766998,-24 -24,-24s-24,10.767 -24,24s10.767,24 24,24zm0,-2c-5.705999,0 -10.912,-2.185001 -14.825,-5.761002l15.238999,-15.238998l21.560999,0c-0.524998,11.667999 -10.178997,21 -21.974998,21zm21.974998,-23l-20.974998,0l0,-20.975c11.337002,0.51 20.465,9.638 20.974998,20.975zm-22.974998,-20.975l0,21.561l-15.239,15.239c-3.576,-3.913002 -5.761,-9.119001 -5.761,-14.825001c0,-11.796 9.332,-21.45 21,-21.975z"/>
 </g>
</svg>