<?xml version="1.0" ?><svg id="Layer_1" style="enable-background:new 0 0 512 512;" version="1.1" viewBox="0 0 512 512" xml:space="preserve" xmlns="http://www.w3.org/2000/svg"><style type="text/css">
	.st0{fill:#FFFFFF;}
	.st1{fill:#303E99;}
	.st2{fill:#BD1F34;}
</style><g><rect class="st0" height="298.7" width="512" y="106.7"/><rect class="st1" height="199.1" width="512" y="206.2"/><rect class="st2" height="99.6" width="512" y="305.8"/><path class="st0" d="M77.5,176.9c-6,0.5-4.3,7.8-5.1,11.9c-2.1,28.6-5.1,58,3.7,85.8c6.9,22.4,23.3,41,43.2,52.9   c4.9,2.7,9.7,6.2,15.1,7.6c5.7-1.6,10.7-5.2,15.8-8.1c19.6-11.9,35.7-30.3,42.5-52.5c8.9-28.3,5.7-58.2,3.6-87.3   c-0.3-4,0.3-10.9-5.6-10.5H77.5z"/><path class="st2" d="M134.4,181.3v149.3c-69.1-33.5-61.5-88.9-56.9-149.3H134.4z M134.4,181.3v149.3   c69.1-33.5,61.5-88.9,56.9-149.3H134.4z"/><path class="st0" d="M142.5,222.3c7.3,0,14.7,1.3,21.8,2.7c-2.1-6.9-2.1-11.2,0-18.1c-7.1,1.4-14.5,2.7-21.8,2.7h-16.1   c-7.3,0-14.7-1.3-21.8-2.7c2.1,6.9,2.1,11.2,0,18.1c7.1-1.4,14.5-2.7,21.8-2.7H142.5z"/><path class="st0" d="M148.7,249.5c7.3,0,14.7,1.3,21.8,2.7c-2.1-6.9-2.1-11.2,0-18.1c-7.1,1.4-14.5,2.7-21.8,2.7h-28.7   c-7.3,0-14.7-1.3-21.8-2.7c2.1,6.9,2.1,11.2,0,18.1c7.1-1.4,14.5-2.7,21.8-2.7H148.7z"/><path class="st0" d="M125.3,187c1.4,7.1,2.8,14.5,2.8,21.7v92.5h12.7v-92.5c0-7.2,1.3-14.6,2.8-21.7   C136.5,189.2,132.3,189.2,125.3,187"/><path class="st1" d="M105.7,278.8c-8.2,0-14.8,6.6-14.8,14.7c0,0.6,0.1,1.2,0.2,1.8c2.9,4.2,6.2,8.3,10,12.2c1.5,0.5,3,0.8,4.6,0.8   c8.2,0,14.8-6.6,14.8-14.8C120.6,285.4,113.9,278.8,105.7,278.8"/><path class="st1" d="M134.4,270.1c-10.4,0-18.8,8.4-18.8,18.8c0,10.4,8.4,18.8,18.8,18.8c10.4,0,18.8-8.4,18.8-18.8   C153.2,278.5,144.8,270.1,134.4,270.1"/><path class="st1" d="M163.1,278.8c-8.2,0-14.8,6.6-14.8,14.7c0,8.2,6.6,14.8,14.8,14.8c1.6,0,3.1-0.3,4.6-0.8   c3.9-3.9,7.2-8,10.1-12.2c0.1-0.6,0.2-1.2,0.2-1.8C177.9,285.4,171.2,278.8,163.1,278.8"/><path class="st1" d="M93.4,298.6c9.1,12.1,22.1,23,41,32.1c18.9-9.2,31.9-20,41-32.1H93.4z"/></g></svg>