<?xml version="1.0" ?><svg id="Layer_1" style="enable-background:new 0 0 512 512;" version="1.1" viewBox="0 0 512 512" xml:space="preserve" xmlns="http://www.w3.org/2000/svg"><style type="text/css">
	.st0{fill:#FFFFFF;}
	.st1{fill:#E91D26;}
	.st2{fill:#485FAB;}
	.st3{fill:#F8E625;}
</style><g><rect class="st0" height="298.7" width="512" y="106.7"/><rect class="st1" height="99.6" width="512" y="305.8"/><rect class="st2" height="99.6" width="512" y="206.2"/><path class="st1" d="M113.2,164.1c-0.9,0.4-1.8,0.8-2.7,1.3l2.8,45.2c0.8,12.3,6,24,14.8,32.8c6,6,13.4,10.4,21.3,12.7l0,0   c8-2.4,15.3-6.7,21.3-12.7c8.8-8.8,14-20.4,14.8-32.8l2.8-45.2c-0.9-0.4-1.8-0.9-2.7-1.3l0,0l-2.9,46.2c-0.7,11.6-5.7,22.7-14,30.9   c-5.5,5.5-12.1,9.5-19.3,11.8l0,0c-7.2-2.3-13.9-6.3-19.3-11.8c-8.3-8.3-13.2-19.3-14-30.9L113.2,164.1L113.2,164.1"/><path class="st2" d="M185.7,164.1c-11.3-5-23.6-7.6-36.2-7.6c-12.6,0-24.9,2.6-36.2,7.6l2.9,46.2c0.7,11.6,5.7,22.7,14,30.9   c5.5,5.5,12.1,9.5,19.3,11.8l0,0c7.2-2.3,13.9-6.3,19.3-11.8c8.3-8.3,13.2-19.3,14-30.9"/><polyline class="st3" points="151.6,178.1 153.2,175.9 150.5,176.2 149.4,173.7 148.3,176.2 145.6,175.9 147.3,178.1 145.6,180.3    148.3,180 149.4,182.5 150.5,180 153.2,180.3  "/><polyline class="st3" points="141.4,164.4 143,162.2 140.3,162.5 139.2,160 138.1,162.5 135.4,162.2 137,164.4 135.4,166.6    138.1,166.3 139.2,168.8 140.3,166.3 143,166.6  "/><polyline class="st3" points="161.9,164.4 163.5,162.2 160.8,162.5 159.7,160 158.6,162.5 155.9,162.2 157.5,164.4 155.9,166.6    158.6,166.3 159.7,168.8 160.8,166.3 163.5,166.6  "/><path class="st0" d="M178.7,217l-14.6-19.5l-5.9,7.8l-8.8-17.5l-8.8,17.5l-5.8-7.8L120.2,217c0,2.6,1,5.1,2.9,6.9s4.3,2.9,6.9,2.9   c1.7,0,3.4-0.5,4.9-1.3c0,0,0,0,0,0c0.7-0.4,1.5-0.7,2.4-1c2.5-0.7,5.1-0.3,7.4,1c1.5,0.9,3.2,1.3,4.9,1.3l0,0   c1.7,0,3.4-0.4,4.9-1.3c2.2-1.3,4.9-1.6,7.4-1c0.8,0.2,1.6,0.6,2.4,1c0,0,0,0,0,0c1.5,0.9,3.2,1.3,4.9,1.3c2.6,0,5.1-1,6.9-2.9   S178.7,219.6,178.7,217"/><path class="st0" d="M123.7,227.6c0.7,1.3,1.4,2.6,2.2,3.9l0,0c2.1,0.9,4.4,1.2,6.6,0.6c0.8-0.2,1.6-0.6,2.3-1c0,0,0,0,0,0   c1.5-0.9,3.1-1.3,4.9-1.3l0,0c1.7,0,3.4,0.4,4.9,1.3c2.2,1.3,4.9,1.6,7.4,1c0.8-0.2,1.6-0.6,2.3-1c0,0,0,0,0,0   c1.5-0.9,3.1-1.3,4.9-1.3h0c1.7,0,3.4,0.4,4.9,1.3c2.2,1.3,4.9,1.6,7.4,1c0.5-0.1,1.1-0.3,1.6-0.6c0.8-1.3,1.5-2.6,2.2-3.9l0,0   c-0.5,0.2-1,0.4-1.4,0.7c0,0,0,0,0,0c-0.7,0.4-1.5,0.8-2.4,1c-2.5,0.7-5.2,0.3-7.4-1c-1.5-0.9-3.2-1.3-4.9-1.3h0   c-1.7,0-3.4,0.5-4.9,1.3c0,0,0,0,0,0c-0.7,0.4-1.5,0.8-2.4,1c-2.5,0.7-5.2,0.3-7.4-1c-1.5-0.9-3.2-1.3-4.9-1.3l0,0   c-1.7,0-3.4,0.5-4.9,1.3c0,0,0,0,0,0c-0.7,0.4-1.5,0.8-2.4,1c-2.5,0.7-5.2,0.3-7.4-1C124.6,228,124.2,227.8,123.7,227.6   L123.7,227.6"/><path class="st0" d="M170.5,235.1c-1.1,1.5-2.4,2.8-3.7,4.2c-4.9,4.9-10.9,8.6-17.3,10.8l0,0c-6.5-2.2-12.4-5.9-17.4-10.8   c-1.3-1.3-2.5-2.7-3.7-4.2l0,0c1.3,0.2,2.7,0.2,4.1-0.2c0.8-0.2,1.6-0.6,2.3-1c0,0,0,0,0,0c1.5-0.8,3.1-1.3,4.9-1.3l0,0   c1.7,0,3.4,0.4,4.9,1.3c2.2,1.3,4.9,1.6,7.4,1c0.8-0.2,1.6-0.6,2.3-1c0,0,0,0,0,0c1.5-0.8,3.1-1.3,4.9-1.3h0c1.7,0,3.4,0.4,4.9,1.3   C166,235.1,168.3,235.5,170.5,235.1L170.5,235.1"/></g></svg>